<?xml version="1.0" encoding="utf-8"?>
<!-- Generator: Adobe Illustrator 19.1.0, SVG Export Plug-In . SVG Version: 6.00 Build 0)  -->
<svg version="1.1" id="Layer_1" xmlns="http://www.w3.org/2000/svg" xmlns:xlink="http://www.w3.org/1999/xlink" x="0px" y="0px"
	 viewBox="0 574 2000 848" style="enable-background:new 0 574 2000 848;" xml:space="preserve">
<style type="text/css">
	.st0{fill:#EC1E27;}
</style>
<path class="st0" d="M365,625h216v797H365v-309H224v309H2V625h222v298h141V625z M1978,1016.6c0,224.6-181.1,409.3-403.1,409.3
	c-224.6,0-334.7-163.5-365.8-228.3c0,104.8-98.6,224.4-238.8,224.4H626V625h370c114.5,0,213.1,118.2,213.1,216.7
	c27.5-66.6,141.2-229.9,365.8-229.9C1796.9,611.8,1978,788.4,1978,1016.6z M1000.4,1168.6c0-35.5-25.8-66.6-57.7-66.6H833v135h109.7
	C974.6,1237,1000.4,1205.9,1000.4,1168.6z M1000.4,869.5c0-35.5-25.8-66.5-57.7-66.5H833v133h109.7
	C974.6,936,1000.4,905,1000.4,869.5z M1171.8,967.9c-16,17.8-57.7,47.1-83.5,48.8c25.8,4.4,65.7,35.5,83.5,61.3
	C1165.5,1056.7,1165.5,989.2,1171.8,967.9z M1777.3,1016.7c0-111.9-90.6-202.4-202.4-202.4c-111.9,0-202.4,90.6-202.4,202.4
	c0,112.8,90.6,203.3,202.4,203.3C1686.8,1220,1777.3,1129.5,1777.3,1016.7z M1574.9,857.8c-88.8,0-159.8,70.1-159.8,158.9
	s71,159.8,159.8,159.8c86.1,0,158.9-71,158.9-159.8S1661,857.8,1574.9,857.8z M1997.6,635.8c0,35.9-28.8,62.1-62.5,62.1
	c-34.1,0-63-26.2-63-62.1c0-35.6,28.9-61.8,63-61.8C1968.8,574,1997.6,600.2,1997.6,635.8z M1985.2,635.8
	c0-29.3-22.2-51.4-50.1-51.4c-28.4,0-50.5,22.2-50.5,51.4c0,29.8,22.1,51.9,50.5,51.9C1963.1,687.7,1985.2,665.6,1985.2,635.8z
	 M1945.1,640.3l20.3,31.7h-12.2l-18.9-31H1922v31h-11v-72h27.3c16.9,0,25.3,6.4,25.3,20.4C1963.6,633.3,1955.5,639,1945.1,640.3z
	 M1934.9,632c9.2,0,17.4-1.1,17.4-12.1c0-8.9-8-10.9-15.6-10.9H1922v23H1934.9z"/>
</svg>
