<?xml version="1.0" encoding="utf-8"?>
<!-- Generator: Adobe Illustrator 19.1.0, SVG Export Plug-In . SVG Version: 6.00 Build 0)  -->
<svg version="1.1" id="Layer_1" xmlns="http://www.w3.org/2000/svg" xmlns:xlink="http://www.w3.org/1999/xlink" x="0px" y="0px"
	 viewBox="0 732 2000 536.3" style="enable-background:new 0 732 2000 536.3;" xml:space="preserve">
<style type="text/css">
	.st0{fill:#ED2517;}
</style>
<path class="st0" d="M274.2,731.6c-0.3,167.4-0.6,334.8-0.9,502.2c-29.4,3-61.7,7.1-91.1,10.5c-37.5-104.9-60.6-170.1-98.2-280.5
	c-0.1,112.2-0.2,181.1-0.2,293.3c-27.3,3.6-56.5,7.3-83.8,11.2c0-178.9,0-357.8,0-536.7c30.8,0,50.1,0,80.8,0
	C117.1,849,153.3,923,189.5,1034.7c0.2-114.5,0.3-188.6,0.5-303.1C217.5,731.6,246.8,731.6,274.2,731.6 M588.7,731.6
	c-78.1,0-155.2,0-233.2,0c-0.3,165.1-0.6,330.1-0.9,495.2c78-7.1,156.1-12.9,234.3-17.4c0-24.1,0.1-58.8,0.1-83
	c-50.8,3.1-99.5,6.4-150.1,9.8c0.1-44.4,0.2-81.1,0.3-125.5c37-0.6,76.1-0.1,113.9-0.7c0-24.3,0.1-59.1,0.1-83.3
	c-37.5,0.7-77,0.7-113.9,1.4c0.1-44.4,0.2-68.7,0.3-113.1c23.2-0.3,45.9-0.3,68.6-0.3c4,0,8,0,12,0s7.9,0,11.9,0
	c18.9,0,37.9,0,57.3-0.2C589.3,790.4,588.7,755.8,588.7,731.6 M903.1,732c-85.6,0-174.1,0-259.7,0c0,24-0.1,58.5-0.1,82.5
	c3.7,0,7.5,0,11.2,0c11.3,0,22.6,0.1,33.8,0.2c11.3,0.1,22.5,0.2,33.8,0.2c2.9,0,5.8,0,8.7,0c-0.2,133.1-0.3,254.6-0.5,387.7
	c27.5-1,56.9-1.9,84.4-2.6c0.1-132.3,0.2-253.2,0.4-385.5c29-0.1,59-0.2,88.1-0.3C903.1,790.7,903.1,755.6,903.1,732 M1192,731.6
	c-78.1,0-156.1,0-234.2,0c0,155.4,0,310.7-0.1,466.1c9.1,0,18.2,0,27.4,0c18.7,0,37.6,0.1,56,0.2c0-65.9,0-126.1-0.1-192
	c4.6,0,9.2,0,13.9,0c10.9,0,22,0,33.1-0.1c11.1,0,22.3-0.1,33.3-0.1c11.4,0,22.7,0,33.7,0.2c0-23.6,0-58.8-0.1-82.4
	c-10.4-0.1-21.1-0.1-31.8-0.1c-11.5,0-23.2,0-34.8,0.1c-11.6,0-23.1,0.1-34.5,0.1c-4.3,0-8.7,0-12.9,0c0-42.4,0-66.3,0-108.7
	c9.2,0,18.3,0,27.4,0c9.2,0,18.5,0,27.7,0c9.3,0,18.6,0,27.9,0c22.6,0,45.3,0,68.1,0.1C1192,791.2,1192,755.3,1192,731.6
	 M1246.6,732c0.2,156.9-0.5,313.7-0.3,470.6c74.9,2.8,153.6,5.8,228.3,11c0-24.1-0.1-58.8-0.1-83c-47.3-2.8-96.6-6.1-144-8.1
	c-0.2-134.3,0.5-256.2,0.3-390.5C1303.4,732,1274,732,1246.6,732 M1543.7,732c0.3,162.2,0.6,324.4,1,486.7
	c27.4,2.1,55.8,4.4,83.2,6.8c0.1-164.4,0.3-329,0-493.5C1600.5,732,1571.1,732,1543.7,732 M1700.1,732
	c33.7,82,64.5,164.3,98.7,251.4c-35.5,83.7-71.7,166.8-107.2,247c29.4,2.9,59.8,7.1,89.2,10.4c21.1-51.7,40.3-91.5,61.4-144.6
	c21.1,56.5,40.2,100.2,61.2,158.6c29.3,3.8,67.4,9.3,96.7,13.4c-35.5-94.9-74.4-193.8-110.1-283.5c35.6-84.3,71.8-164.7,108.8-252.8
	c-30.3,0-61.6,0-91.9,0c-22.8,54.4-38.5,89.4-60.3,141.3c-20.4-53.9-34-88.8-54.4-141.3C1761.7,732,1730.4,732,1700.1,732"/>
</svg>
