<?xml version="1.0" encoding="UTF-8" standalone="no"?>
<svg width="20px" height="20px" viewBox="0 0 20 20" version="1.1" xmlns="http://www.w3.org/2000/svg" xmlns:xlink="http://www.w3.org/1999/xlink">
    <!-- Generator: sketchtool 3.6.1 (26313) - http://www.bohemiancoding.com/sketch -->
    <title>SS_Mark</title>
    <desc>Created with sketchtool.</desc>
    <defs></defs>
    <g id="Page-1" stroke="none" stroke-width="1" fill="none" fill-rule="evenodd">
        <g id="Show_Selected" transform="translate(-661.000000, -524.000000)" fill="#D0011B">
            <g id="Ratings" transform="translate(465.000000, 522.000000)">
                <path d="M206,21.522835 C200.761617,21.522835 196.500634,17.2561435 196.500634,12.0114175 C196.500634,6.76669149 200.761617,2.5 206,2.5 C211.237749,2.5 215.499366,6.76669149 215.499366,12.0114175 C215.499366,17.2561435 211.237749,21.522835 206,21.522835 L206,21.522835 Z M209.871545,6.046168 L203.041794,12.8847985 L203.041794,9.27203286 L207.293898,5.01422106 C206.873381,4.93684089 206.442082,4.89053965 206,4.89053965 C202.078348,4.89053965 198.888002,8.08532559 198.888002,12.0114175 C198.888002,14.4793373 200.149552,16.6567644 202.05932,17.9348056 L208.448892,11.5369883 L208.448892,15.149754 L204.609694,18.9940259 C205.059387,19.0834571 205.524302,19.1322954 206,19.1322954 C209.921018,19.1322954 213.111364,15.9381437 213.111364,12.0114175 C213.111364,9.51495583 211.818735,7.31786659 209.871545,6.046168 L209.871545,6.046168 Z" id="SS_Mark"></path>
            </g>
        </g>
    </g>
</svg>