<?xml version="1.0" encoding="utf-8"?>
<!-- Generator: Adobe Illustrator 19.1.0, SVG Export Plug-In . SVG Version: 6.00 Build 0)  -->
<svg version="1.1" id="Layer_1" xmlns="http://www.w3.org/2000/svg" xmlns:xlink="http://www.w3.org/1999/xlink" x="0px" y="0px"
	 viewBox="0 667.3 2000 668.7" style="enable-background:new 0 667.3 2000 668.7;" xml:space="preserve">
<style type="text/css">
	.st0{fill:#EC1E27;}
</style>
<path class="st0" d="M0,667.3h155.9v214.9c12.5-7.2,28.7-11.2,50-11.2h119.6c93.3,0,169.6,62.5,169.6,155.7V1336h-156v-259
	c0-28.3-23.2-51.5-51.5-51.5h-80.2c-28.2,0-51.5,23.2-51.5,51.5v259H115H0V667.3L0,667.3z M1107,879.9H951.1v256.3
	c0,28.3-23.2,51.5-51.5,51.5h-75.7c-28.3,0-51.5-23.2-51.5-51.5V879.9H616.5v300.4c0,93.3,76.4,155.7,169.6,155.7h151.4
	c93.2,0,169.6-62.5,169.6-155.7L1107,879.9L1107,879.9z M2000,879.9h-155.9v256.3c0,28.3-23.2,51.5-51.5,51.5h-75.7
	c-28.3,0-51.5-23.2-51.5-51.5V879.9h-155.9v300.4c0,93.3,76.4,155.7,169.6,155.7h151.4c93.2,0,169.6-62.5,169.6-155.7L2000,879.9
	L2000,879.9z M1229.4,667.3V1336h155.9V667.3H1229.4L1229.4,667.3z"/>
</svg>
