<?xml version="1.0" encoding="utf-8"?>
<!-- Generator: Adobe Illustrator 19.1.0, SVG Export Plug-In . SVG Version: 6.00 Build 0)  -->
<svg version="1.1" id="Layer_1" xmlns="http://www.w3.org/2000/svg" xmlns:xlink="http://www.w3.org/1999/xlink" x="0px" y="0px"
	 viewBox="18.1 339.6 1963.7 1320.8" style="enable-background:new 18.1 339.6 1963.7 1320.8;" xml:space="preserve">
<style type="text/css">
	.st0{fill:#55595C;}
</style>
<path class="st0" d="M1908.6,339.6H91.4c-40.4,0-73.3,32.9-73.3,73.3v1007.7c0,40.4,32.9,73.3,73.3,73.3h854.8v144.2H733.8
	c-6.1,0-11.1,5-11.1,11.1s5,11.1,11.1,11.1h223.5h85.3h223.5c6.1,0,11.1-5,11.1-11.1s-5-11.1-11.1-11.1h-212.4V1494h854.8
	c40.4,0,73.3-32.9,73.3-73.3V412.9C1981.9,372.5,1949,339.6,1908.6,339.6z M1031.6,1638.2h-63.2V1494h63.2V1638.2z M1959.7,1420.7
	c0,28.2-22.9,51.1-51.1,51.1h-865.9h-85.3h-866c-28.2,0-51.1-22.9-51.1-51.1V412.9c0-28.2,22.9-51.1,51.1-51.1h1817.2
	c28.2,0,51.1,22.9,51.1,51.1V1420.7z M1877.1,436.8H122.9c-6.1,0-11.1,5-11.1,11.1v937.9c0,6.1,5,11.1,11.1,11.1H1877
	c6.1,0,11.1-5,11.1-11.1V447.9C1888.2,441.7,1883.2,436.8,1877.1,436.8z M1866,1374.7H134V459h1732V1374.7z M1970.8,1538.6h-435.4
	c-6.1,0-11.1,5-11.1,11.1v99.6c0,6.1,5,11.1,11.1,11.1h435.4c6.1,0,11.1-5,11.1-11.1v-99.6
	C1981.9,1543.5,1976.9,1538.6,1970.8,1538.6z M1959.7,1638.2h-413.2v-77.4h413.2V1638.2z"/>
</svg>
